<svg width="16" height="16" viewBox="0 0 16 16" fill="none" xmlns="http://www.w3.org/2000/svg">
<path d="M14.9999 7.00004H3.82992L8.70992 2.12004C9.09993 1.73004 9.09993 1.09004 8.70992 0.700037C8.61741 0.607333 8.50752 0.533785 8.38655 0.483604C8.26558 0.433422 8.13589 0.407593 8.00492 0.407593C7.87396 0.407593 7.74427 0.433422 7.6233 0.483604C7.50233 0.533785 7.39244 0.607333 7.29992 0.700037L0.709925 7.29004C0.617221 7.38255 0.543674 7.49244 0.493492 7.61341C0.443311 7.73439 0.41748 7.86407 0.41748 7.99504C0.41748 8.12601 0.443311 8.25569 0.493492 8.37666C0.543674 8.49763 0.617221 8.60752 0.709925 8.70004L7.29992 15.29C7.39251 15.3826 7.50242 15.4561 7.62338 15.5062C7.74435 15.5563 7.87399 15.5821 8.00492 15.5821C8.13586 15.5821 8.2655 15.5563 8.38647 15.5062C8.50743 15.4561 8.61734 15.3826 8.70992 15.29C8.80251 15.1975 8.87595 15.0875 8.92605 14.9666C8.97616 14.8456 9.00195 14.716 9.00195 14.585C9.00195 14.4541 8.97616 14.3245 8.92605 14.2035C8.87595 14.0825 8.80251 13.9726 8.70992 13.88L3.82992 9.00004H14.9999C15.5499 9.00004 15.9999 8.55004 15.9999 8.00004C15.9999 7.45004 15.5499 7.00004 14.9999 7.00004Z" fill="#1C242B"/>
</svg>
